# xmcd
# 
# Track frame offsets:
#     150
#     4073
#     15525
#     24033
#     47633
#     53648
#     57063
#     68318
#     85338
#     97918
#     110025
#     115693
#     127988
#     134358
#     152400
#     157230
#     163380
#     193268
#     199868
#     217918
#     231243
#     241425
#     244818
#     257400
#     272025
#     289293
# 
# Disc length: 4015
# 
# Revision: 1
# Processed by: cddbd v1.5.2PL0 Copyright (c) Steve Scherf et al.
# Submitted via: BonkEnc v1.0.5
# 
DISCID=600fad1a
DTITLE=Various Artist - Newdirections
DYEAR=0
DGENRE=Comedy
TTITLE0=Pat - Naked Poets Intro
TTITLE1=Murray - The Nudist
TTITLE2=Ray - Love and Marriage
TTITLE3=Ray - The Stew
TTITLE4=Murray - A Tale Of Ethnic Misinterpretation
TTITLE5=Marco - Roasting Murray
TTITLE6=Marco - Blurbulence
TTITLE7=Shirley - The Specimen
TTITLE8=Shirley - Mammologue
TTITLE9=Shirley - The Mammogram
TTITLE10=Pat - Intro
TTITLE11=Pat - Foolin' Around On Line
TTITLE12=Murray - Strange Tales
TTITLE13=Murray - Dr.Death
TTITLE14=Murray - Intro
TTITLE15=Bobby - Kids
TTITLE16=Bobby - The Bachelor
TTITLE17=Marco - Melons
TTITLE18=Marco - The Other Homebush Games
TTITLE19=Ray - Great State Debate Part 1
TTITLE20=Ray - Chokos
TTITLE21=Bobby - Great State Debate Part 2
TTITLE22=Bobby - Mangos
TTITLE23=Pat - Intro for 40 into 24
TTITLE24=Pat - 40 Into 24
TTITLE25=The Naked Poets - Naked poets Outro
EXTD=
EXTT0=
EXTT1=
EXTT2=
EXTT3=
EXTT4=
EXTT5=
EXTT6=
EXTT7=
EXTT8=
EXTT9=
EXTT10=
EXTT11=
EXTT12=
EXTT13=
EXTT14=
EXTT15=
EXTT16=
EXTT17=
EXTT18=
EXTT19=
EXTT20=
EXTT21=
EXTT22=
EXTT23=
EXTT24=
EXTT25=
PLAYORDER=
